mtllib ItmPowderBox.mtl

v -4.862549 6.291504 -6.979248
v 4.827148 -6.326904 -6.979248
v -6.311768 4.855713 -6.979248
v 6.276367 -4.891113 -6.979248
v -6.311768 4.855713 -6.240479
v 4.827148 -6.326904 -6.979248
v 4.827148 -6.326904 -6.240479
v -6.311768 4.855713 -6.979248
v 4.827148 -6.326904 -6.240479
v 6.276367 -4.891113 -6.979248
v 6.276367 -4.891113 -6.240479
v 4.827148 -6.326904 -6.979248
v 6.276367 -4.891113 -6.240479
v -4.862549 6.291504 -6.979248
v -4.862549 6.291504 -6.240479
v 6.276367 -4.891113 -6.979248
v -4.862549 6.291504 -6.240479
v -6.311768 4.855713 -6.979248
v -6.311768 4.855713 -6.240479
v -4.862549 6.291504 -6.979248
v 4.827148 -6.326904 6.979248
v -4.862549 6.291504 6.979248
v -6.311768 4.855713 6.979248
v 6.276367 -4.891113 6.979248
v 4.827148 -6.326904 6.979248
v -6.311768 4.855713 6.240479
v 4.827148 -6.326904 6.240479
v -6.311768 4.855713 6.979248
v 6.276367 -4.891113 6.979248
v 4.827148 -6.326904 6.240479
v 6.276367 -4.891113 6.240479
v 4.827148 -6.326904 6.979248
v -4.862549 6.291504 6.979248
v 6.276367 -4.891113 6.240479
v -4.862549 6.291504 6.240479
v 6.276367 -4.891113 6.979248
v -6.311768 4.855713 6.979248
v -4.862549 6.291504 6.240479
v -6.311768 4.855713 6.240479
v -4.862549 6.291504 6.979248
v 6.066895 7.061768 -4.044434
v -6.066895 7.061768 -5.779297
v -6.074219 7.061768 -4.070313
v 6.074219 7.061768 -5.753418
v 6.066895 7.061768 -4.044434
v -6.074219 6.322754 -4.070313
v 6.066895 6.322754 -4.044434
v -6.074219 7.061768 -4.070313
v 6.074219 7.061768 -5.753418
v 6.066895 6.322754 -4.044434
v 6.074219 6.322754 -5.753418
v 6.066895 7.061768 -4.044434
v -6.066895 7.061768 -5.779297
v 6.074219 6.322754 -5.753418
v -6.066895 6.322754 -5.779297
v 6.074219 7.061768 -5.753418
v -6.074219 7.061768 -4.070313
v -6.066895 6.322754 -5.779297
v -6.074219 6.322754 -4.070313
v -6.066895 7.061768 -5.779297
v 6.074219 -7.061768 -5.753418
v -6.074219 -7.061768 -4.070313
v -6.066895 -7.061768 -5.779297
v 6.066895 -7.061768 -4.044434
v 6.074219 -7.061768 -5.753418
v -6.066895 -6.322754 -5.779297
v 6.074219 -6.322754 -5.753418
v -6.066895 -7.061768 -5.779297
v 6.066895 -7.061768 -4.044434
v 6.074219 -6.322754 -5.753418
v 6.066895 -6.322754 -4.044434
v 6.074219 -7.061768 -5.753418
v -6.074219 -7.061768 -4.070313
v 6.066895 -6.322754 -4.044434
v -6.074219 -6.322754 -4.070313
v 6.066895 -7.061768 -4.044434
v -6.066895 -7.061768 -5.779297
v -6.074219 -6.322754 -4.070313
v -6.066895 -6.322754 -5.779297
v -6.074219 -7.061768 -4.070313
v 6.074219 -7.061768 4.116455
v -6.074219 -7.061768 5.718262
v -6.066895 -7.061768 4.091797
v 6.066895 -7.061768 5.742920
v 6.074219 -7.061768 4.116455
v -6.066895 -6.322754 4.091797
v 6.074219 -6.322754 4.116455
v -6.066895 -7.061768 4.091797
v 6.066895 -7.061768 5.742920
v 6.074219 -6.322754 4.116455
v 6.066895 -6.322754 5.742920
v 6.074219 -7.061768 4.116455
v -6.074219 -7.061768 5.718262
v 6.066895 -6.322754 5.742920
v -6.074219 -6.322754 5.718262
v 6.066895 -7.061768 5.742920
v -6.066895 -7.061768 4.091797
v -6.074219 -6.322754 5.718262
v -6.066895 -6.322754 4.091797
v -6.074219 -7.061768 5.718262
v 6.066895 7.061768 5.742920
v -6.066895 7.061768 4.091797
v -6.074219 7.061768 5.718262
v 6.074219 7.061768 4.116455
v 6.066895 7.061768 5.742920
v -6.074219 6.322754 5.718262
v 6.066895 6.322754 5.742920
v -6.074219 7.061768 5.718262
v 6.074219 7.061768 4.116455
v 6.066895 6.322754 5.742920
v 6.074219 6.322754 4.116455
v 6.066895 7.061768 5.742920
v -6.066895 7.061768 4.091797
v 6.074219 6.322754 4.116455
v -6.066895 6.322754 4.091797
v 6.074219 7.061768 4.116455
v -6.074219 7.061768 5.718262
v -6.066895 6.322754 4.091797
v -6.074219 6.322754 5.718262
v -6.066895 7.061768 4.091797
v -6.375000 -6.375000 6.375000
v -6.375000 6.375000 -6.375000
v -6.375000 -6.375000 -6.375000
v -6.375000 6.375000 6.375000
v 6.375000 -6.375000 -6.375000
v 6.375000 6.375000 6.375000
v 6.375000 -6.375000 6.375000
v 6.375000 6.375000 -6.375000
v 6.375000 -6.375000 -6.375000
v -6.375000 -6.375000 6.375000
v -6.375000 -6.375000 -6.375000
v 6.375000 -6.375000 6.375000
v 6.375000 6.375000 -6.375000
v -6.375000 -6.375000 -6.375000
v -6.375000 6.375000 -6.375000
v 6.375000 -6.375000 -6.375000
v 6.375000 6.375000 6.375000
v -6.375000 6.375000 -6.375000
v -6.375000 6.375000 6.375000
v 6.375000 6.375000 -6.375000
v 6.375000 -6.375000 6.375000
v -6.375000 6.375000 6.375000
v -6.375000 -6.375000 6.375000
v 6.375000 6.375000 6.375000

vt 0.408417 0.500153
vt 0.589478 -0.000153
vt 0.589478 0.500153
vt 0.408417 -0.000153
vt 0.610535 0.500000
vt 0.589478 -0.000153
vt 0.610535 -0.000824
vt 0.589478 0.500153
vt 0.589478 -0.021942
vt 0.408417 -0.000153
vt 0.408417 -0.021942
vt 0.589478 -0.000153
vt 0.387360 -0.000824
vt 0.408417 0.500153
vt 0.387360 0.500000
vt 0.408417 -0.000153
vt 0.408417 0.521942
vt 0.589478 0.500153
vt 0.589478 0.521942
vt 0.408417 0.500153
vt 0.589478 -0.000153
vt 0.408417 0.500153
vt 0.589478 0.500153
vt 0.408417 -0.000153
vt 0.589478 -0.000153
vt 0.610535 0.500000
vt 0.610535 -0.000824
vt 0.589478 0.500153
vt 0.408417 -0.000153
vt 0.589478 -0.021942
vt 0.408417 -0.021942
vt 0.589478 -0.000153
vt 0.408417 0.500153
vt 0.387360 -0.000824
vt 0.387360 0.500000
vt 0.408417 -0.000153
vt 0.589478 0.500153
vt 0.408417 0.521942
vt 0.589478 0.521942
vt 0.408417 0.500153
vt 0.589478 -0.000153
vt 0.408417 0.500153
vt 0.589478 0.500153
vt 0.408417 -0.000153
vt 0.589478 -0.000153
vt 0.610535 0.500000
vt 0.610535 -0.000824
vt 0.589478 0.500153
vt 0.408417 -0.000153
vt 0.589478 -0.021942
vt 0.408417 -0.021942
vt 0.589478 -0.000153
vt 0.408417 0.500153
vt 0.387360 -0.000824
vt 0.387360 0.500000
vt 0.408417 -0.000153
vt 0.589478 0.500153
vt 0.408417 0.521942
vt 0.589478 0.521942
vt 0.408417 0.500153
vt 0.589478 -0.000153
vt 0.408417 0.500153
vt 0.589478 0.500153
vt 0.408417 -0.000153
vt 0.589478 -0.000153
vt 0.610535 0.500000
vt 0.610535 -0.000824
vt 0.589478 0.500153
vt 0.408417 -0.000153
vt 0.589478 0.000000
vt 0.408417 0.000000
vt 0.589478 -0.000153
vt 0.408417 0.500153
vt 0.387360 -0.000824
vt 0.387360 0.500000
vt 0.408417 -0.000153
vt 0.589478 0.500153
vt 0.408417 0.521942
vt 0.589478 0.521942
vt 0.408417 0.500153
vt 0.589478 -0.000153
vt 0.408417 0.500153
vt 0.589478 0.500153
vt 0.408417 -0.000153
vt 0.589478 -0.000153
vt 0.610535 0.500000
vt 0.610535 -0.000824
vt 0.589478 0.500153
vt 0.408417 -0.000153
vt 0.589478 0.000000
vt 0.408417 0.000000
vt 0.589478 -0.000153
vt 0.408417 0.500153
vt 0.387360 -0.000824
vt 0.387360 0.500000
vt 0.408417 -0.000153
vt 0.589478 0.500153
vt 0.408417 0.521942
vt 0.589478 0.521942
vt 0.408417 0.500153
vt 0.589478 -0.000153
vt 0.408417 0.500153
vt 0.589478 0.500153
vt 0.408417 -0.000153
vt 0.589478 -0.000153
vt 0.610535 0.500000
vt 0.610535 -0.000824
vt 0.589478 0.500153
vt 0.408417 -0.000153
vt 0.589478 -0.021942
vt 0.408417 -0.021942
vt 0.589478 -0.000153
vt 0.408417 0.500153
vt 0.387360 -0.000824
vt 0.387360 0.500000
vt 0.408417 -0.000153
vt 0.589478 0.500153
vt 0.408417 0.521942
vt 0.589478 0.521942
vt 0.408417 0.500153
vt 1.000000 0.500000
vt 0.000000 1.000000
vt 0.000000 0.500000
vt 1.000000 1.000000
vt 1.000000 0.500000
vt 0.000000 1.000000
vt 0.000000 0.500000
vt 1.000000 1.000000
vt 1.000000 0.000000
vt 0.000000 0.500000
vt 1.000000 0.500000
vt 0.000000 0.000000
vt 1.000000 0.522614
vt 0.000000 -0.022614
vt 1.000000 -0.022614
vt 0.000000 0.522614
vt 1.000000 0.000000
vt 0.000000 0.500000
vt 1.000000 0.500000
vt 0.000000 0.000000
vt 1.000000 0.522614
vt 0.000000 -0.022614
vt 1.000000 -0.022614
vt 0.000000 0.522614

vn 0.000000 0.000000 -1.000000
vn 0.000000 0.000000 -1.000000
vn 0.000000 0.000000 -1.000000
vn 0.000000 0.000000 -1.000000
vn -0.708479 -0.705732 0.000000
vn -0.708479 -0.705732 0.000000
vn -0.708479 -0.705732 0.000000
vn -0.708479 -0.705732 0.000000
vn 0.703803 -0.710395 0.000000
vn 0.703803 -0.710395 0.000000
vn 0.703803 -0.710395 0.000000
vn 0.703803 -0.710395 0.000000
vn 0.708479 0.705732 0.000000
vn 0.708479 0.705732 0.000000
vn 0.708479 0.705732 0.000000
vn 0.708479 0.705732 0.000000
vn -0.703803 0.710395 0.000000
vn -0.703803 0.710395 0.000000
vn -0.703803 0.710395 0.000000
vn -0.703803 0.710395 0.000000
vn 0.000000 0.000000 1.000000
vn 0.000000 0.000000 1.000000
vn 0.000000 0.000000 1.000000
vn 0.000000 0.000000 1.000000
vn -0.708479 -0.705732 0.000000
vn -0.708479 -0.705732 0.000000
vn -0.708479 -0.705732 0.000000
vn -0.708479 -0.705732 0.000000
vn 0.703803 -0.710395 0.000000
vn 0.703803 -0.710395 0.000000
vn 0.703803 -0.710395 0.000000
vn 0.703803 -0.710395 0.000000
vn 0.708479 0.705732 0.000000
vn 0.708479 0.705732 0.000000
vn 0.708479 0.705732 0.000000
vn 0.708479 0.705732 0.000000
vn -0.703803 0.710395 0.000000
vn -0.703803 0.710395 0.000000
vn -0.703803 0.710395 0.000000
vn -0.703803 0.710395 0.000000
vn 0.000000 1.000000 0.000000
vn 0.000000 1.000000 0.000000
vn 0.000000 1.000000 0.000000
vn 0.000000 1.000000 0.000000
vn 0.000000 0.000000 1.000000
vn 0.000000 0.000000 1.000000
vn 0.000000 0.000000 1.000000
vn 0.000000 0.000000 1.000000
vn 1.000000 0.000000 0.000000
vn 1.000000 0.000000 0.000000
vn 1.000000 0.000000 0.000000
vn 1.000000 0.000000 0.000000
vn 0.000000 0.000000 -1.000000
vn 0.000000 0.000000 -1.000000
vn 0.000000 0.000000 -1.000000
vn 0.000000 0.000000 -1.000000
vn -1.000000 0.000000 0.000000
vn -1.000000 0.000000 0.000000
vn -1.000000 0.000000 0.000000
vn -1.000000 0.000000 0.000000
vn 0.000000 -1.000000 0.000000
vn 0.000000 -1.000000 0.000000
vn 0.000000 -1.000000 0.000000
vn 0.000000 -1.000000 0.000000
vn 0.000000 0.000000 -1.000000
vn 0.000000 0.000000 -1.000000
vn 0.000000 0.000000 -1.000000
vn 0.000000 0.000000 -1.000000
vn 1.000000 0.000000 0.000000
vn 1.000000 0.000000 0.000000
vn 1.000000 0.000000 0.000000
vn 1.000000 0.000000 0.000000
vn 0.000000 0.000000 1.000000
vn 0.000000 0.000000 1.000000
vn 0.000000 0.000000 1.000000
vn 0.000000 0.000000 1.000000
vn -1.000000 0.000000 0.000000
vn -1.000000 0.000000 0.000000
vn -1.000000 0.000000 0.000000
vn -1.000000 0.000000 0.000000
vn 0.000000 -1.000000 0.000000
vn 0.000000 -1.000000 0.000000
vn 0.000000 -1.000000 0.000000
vn 0.000000 -1.000000 0.000000
vn 0.000000 0.000000 -1.000000
vn 0.000000 0.000000 -1.000000
vn 0.000000 0.000000 -1.000000
vn 0.000000 0.000000 -1.000000
vn 1.000000 0.000000 0.000000
vn 1.000000 0.000000 0.000000
vn 1.000000 0.000000 0.000000
vn 1.000000 0.000000 0.000000
vn 0.000000 0.000000 1.000000
vn 0.000000 0.000000 1.000000
vn 0.000000 0.000000 1.000000
vn 0.000000 0.000000 1.000000
vn -1.000000 0.000000 0.000000
vn -1.000000 0.000000 0.000000
vn -1.000000 0.000000 0.000000
vn -1.000000 0.000000 0.000000
vn 0.000000 1.000000 0.000000
vn 0.000000 1.000000 0.000000
vn 0.000000 1.000000 0.000000
vn 0.000000 1.000000 0.000000
vn 0.000000 0.000000 1.000000
vn 0.000000 0.000000 1.000000
vn 0.000000 0.000000 1.000000
vn 0.000000 0.000000 1.000000
vn 1.000000 0.000000 0.000000
vn 1.000000 0.000000 0.000000
vn 1.000000 0.000000 0.000000
vn 1.000000 0.000000 0.000000
vn 0.000000 0.000000 -1.000000
vn 0.000000 0.000000 -1.000000
vn 0.000000 0.000000 -1.000000
vn 0.000000 0.000000 -1.000000
vn -1.000000 0.000000 0.000000
vn -1.000000 0.000000 0.000000
vn -1.000000 0.000000 0.000000
vn -1.000000 0.000000 0.000000
vn -1.000000 0.000000 0.000000
vn -1.000000 0.000000 0.000000
vn -1.000000 0.000000 0.000000
vn -1.000000 0.000000 0.000000
vn 1.000000 0.000000 0.000000
vn 1.000000 0.000000 0.000000
vn 1.000000 0.000000 0.000000
vn 1.000000 0.000000 0.000000
vn 0.000000 -1.000000 0.000000
vn 0.000000 -1.000000 0.000000
vn 0.000000 -1.000000 0.000000
vn 0.000000 -1.000000 0.000000
vn 0.000000 0.000000 -1.000000
vn 0.000000 0.000000 -1.000000
vn 0.000000 0.000000 -1.000000
vn 0.000000 0.000000 -1.000000
vn 0.000000 1.000000 0.000000
vn 0.000000 1.000000 0.000000
vn 0.000000 1.000000 0.000000
vn 0.000000 1.000000 0.000000
vn 0.000000 0.000000 1.000000
vn 0.000000 0.000000 1.000000
vn 0.000000 0.000000 1.000000
vn 0.000000 0.000000 1.000000

g polygon0
s 1
usemtl mat1
f 1/1/1 2/2/2 3/3/3
f 1/1/1 4/4/4 2/2/2
f 5/5/5 6/6/6 7/7/7
f 5/5/5 8/8/8 6/6/6
f 9/9/9 10/10/10 11/11/11
f 9/9/9 12/12/12 10/10/10
f 13/13/13 14/14/14 15/15/15
f 13/13/13 16/16/16 14/14/14
f 17/17/17 18/18/18 19/19/19
f 17/17/17 20/20/20 18/18/18
f 21/21/21 22/22/22 23/23/23
f 21/21/21 24/24/24 22/22/22
f 25/25/25 26/26/26 27/27/27
f 25/25/25 28/28/28 26/26/26
f 29/29/29 30/30/30 31/31/31
f 29/29/29 32/32/32 30/30/30
f 33/33/33 34/34/34 35/35/35
f 33/33/33 36/36/36 34/34/34
f 37/37/37 38/38/38 39/39/39
f 37/37/37 40/40/40 38/38/38
f 41/41/41 42/42/42 43/43/43
f 41/41/41 44/44/44 42/42/42
f 45/45/45 46/46/46 47/47/47
f 45/45/45 48/48/48 46/46/46
f 49/49/49 50/50/50 51/51/51
f 49/49/49 52/52/52 50/50/50
f 53/53/53 54/54/54 55/55/55
f 53/53/53 56/56/56 54/54/54
f 57/57/57 58/58/58 59/59/59
f 57/57/57 60/60/60 58/58/58
f 61/61/61 62/62/62 63/63/63
f 61/61/61 64/64/64 62/62/62
f 65/65/65 66/66/66 67/67/67
f 65/65/65 68/68/68 66/66/66
f 69/69/69 70/70/70 71/71/71
f 69/69/69 72/72/72 70/70/70
f 73/73/73 74/74/74 75/75/75
f 73/73/73 76/76/76 74/74/74
f 77/77/77 78/78/78 79/79/79
f 77/77/77 80/80/80 78/78/78
f 81/81/81 82/82/82 83/83/83
f 81/81/81 84/84/84 82/82/82
f 85/85/85 86/86/86 87/87/87
f 85/85/85 88/88/88 86/86/86
f 89/89/89 90/90/90 91/91/91
f 89/89/89 92/92/92 90/90/90
f 93/93/93 94/94/94 95/95/95
f 93/93/93 96/96/96 94/94/94
f 97/97/97 98/98/98 99/99/99
f 97/97/97 100/100/100 98/98/98
f 101/101/101 102/102/102 103/103/103
f 101/101/101 104/104/104 102/102/102
f 105/105/105 106/106/106 107/107/107
f 105/105/105 108/108/108 106/106/106
f 109/109/109 110/110/110 111/111/111
f 109/109/109 112/112/112 110/110/110
f 113/113/113 114/114/114 115/115/115
f 113/113/113 116/116/116 114/114/114
f 117/117/117 118/118/118 119/119/119
f 117/117/117 120/120/120 118/118/118
f 121/121/121 122/122/122 123/123/123
f 121/121/121 124/124/124 122/122/122
f 125/125/125 126/126/126 127/127/127
f 125/125/125 128/128/128 126/126/126
f 129/129/129 130/130/130 131/131/131
f 129/129/129 132/132/132 130/130/130
f 133/133/133 134/134/134 135/135/135
f 133/133/133 136/136/136 134/134/134
f 137/137/137 138/138/138 139/139/139
f 137/137/137 140/140/140 138/138/138
f 141/141/141 142/142/142 143/143/143
f 141/141/141 144/144/144 142/142/142

